<svg version="1.1" id="Map" class="gen-by-synoptic-designer" xmlns="http://www.w3.org/2000/svg" xmlns:xlink="http://www.w3.org/1999/xlink" viewBox="0 0 1275 1650" xml:space="preserve"><polygon id="_x31_" title="Daan" points="140,318,277,312,254,376,182,398,126,375,111,328,110,280,122,261,154,247,178,250,206,273,221,304,224,315,243,340,259,336,284,289,300,258,306,233,294,194,282,183,211,167,147,178,89,217,61,276,67,387,151,437,236,446,341,438,393,371,431,271,432,250,426,197,413,174,410,166,239,207,409,235,141,187,195,281" /><polygon id="_x32_" title="Wanhua" points="908,319,863,370,976,428,1030,357,1015,277,973,232,904,198,837,204,792,277,789,320,811,377,873,440,971,472,1019,474,1066,430,1094,332,1100,299" /><polygon id="_x33_" title="Wenshan" points="620,98,565,111,594,168,646,211,676,204,721,172,747,115,747,97,748,91" /><polygon id="_x34_" title="Xinyi" points="940,130,689,149,912,150,929,178,939,148" /><polygon id="_x35_" title="Changchen" points="1009,169,1009,169,1112,198,1049,221" /><polygon id="_x36_" title="Pingtung" points="1176,299,1060,212,1162,205" /><polygon id="_x37_" title="Kaoshiung" points="640,408,602,350,677,394" /><polygon id="_x38_" title="Tainan" points="730,171,731,171,730,171,730,172,730,171,729,171,730,171" /></svg>